<mxfile host="app.diagrams.net" modified="2023-03-25T07:52:34.345Z" agent="Mozilla/5.0 (Windows NT 10.0; Win64; x64) AppleWebKit/537.36 (KHTML, like Gecko) Chrome/108.0.0.0 YaBrowser/23.1.5.708 Yowser/2.5 Safari/537.36" etag="XF8k6uc8NbhgQ97_PIJg" version="21.1.1" type="device">
  <diagram id="C5RBs43oDa-KdzZeNtuy" name="Page-1">
    <mxGraphModel dx="1434" dy="767" grid="1" gridSize="10" guides="1" tooltips="1" connect="1" arrows="1" fold="1" page="1" pageScale="1" pageWidth="827" pageHeight="1169" math="0" shadow="0">
      <root>
        <mxCell id="WIyWlLk6GJQsqaUBKTNV-0" />
        <mxCell id="WIyWlLk6GJQsqaUBKTNV-1" parent="WIyWlLk6GJQsqaUBKTNV-0" />
        <mxCell id="QQY2Uwe5fQTWb0ZK2LQ9-0" value="Start" style="ellipse;whiteSpace=wrap;html=1;aspect=fixed;" parent="WIyWlLk6GJQsqaUBKTNV-1" vertex="1">
          <mxGeometry x="300" y="110" width="80" height="80" as="geometry" />
        </mxCell>
        <mxCell id="QQY2Uwe5fQTWb0ZK2LQ9-1" value="" style="endArrow=classic;html=1;rounded=0;exitX=0.5;exitY=1;exitDx=0;exitDy=0;entryX=0.5;entryY=0;entryDx=0;entryDy=0;" parent="WIyWlLk6GJQsqaUBKTNV-1" source="QQY2Uwe5fQTWb0ZK2LQ9-0" target="QQY2Uwe5fQTWb0ZK2LQ9-2" edge="1">
          <mxGeometry width="50" height="50" relative="1" as="geometry">
            <mxPoint x="340" y="110" as="sourcePoint" />
            <mxPoint x="340" y="150" as="targetPoint" />
          </mxGeometry>
        </mxCell>
        <mxCell id="QQY2Uwe5fQTWb0ZK2LQ9-55" style="edgeStyle=orthogonalEdgeStyle;rounded=0;orthogonalLoop=1;jettySize=auto;html=1;exitX=0.5;exitY=1;exitDx=0;exitDy=0;entryX=0.5;entryY=0;entryDx=0;entryDy=0;" parent="WIyWlLk6GJQsqaUBKTNV-1" source="QQY2Uwe5fQTWb0ZK2LQ9-2" target="QQY2Uwe5fQTWb0ZK2LQ9-12" edge="1">
          <mxGeometry relative="1" as="geometry" />
        </mxCell>
        <mxCell id="QQY2Uwe5fQTWb0ZK2LQ9-2" value="console: &lt;br&gt;enter numbers&lt;br&gt;a, b, c&amp;nbsp;" style="rounded=1;whiteSpace=wrap;html=1;fontSize=12;glass=0;strokeWidth=1;shadow=0;" parent="WIyWlLk6GJQsqaUBKTNV-1" vertex="1">
          <mxGeometry x="280" y="220" width="120" height="50" as="geometry" />
        </mxCell>
        <mxCell id="QQY2Uwe5fQTWb0ZK2LQ9-27" style="edgeStyle=orthogonalEdgeStyle;rounded=0;orthogonalLoop=1;jettySize=auto;html=1;exitX=0;exitY=0.5;exitDx=0;exitDy=0;entryX=0.5;entryY=0;entryDx=0;entryDy=0;" parent="WIyWlLk6GJQsqaUBKTNV-1" source="QQY2Uwe5fQTWb0ZK2LQ9-12" target="QQY2Uwe5fQTWb0ZK2LQ9-17" edge="1">
          <mxGeometry relative="1" as="geometry" />
        </mxCell>
        <mxCell id="QQY2Uwe5fQTWb0ZK2LQ9-28" value="No" style="edgeLabel;html=1;align=center;verticalAlign=middle;resizable=0;points=[];" parent="QQY2Uwe5fQTWb0ZK2LQ9-27" vertex="1" connectable="0">
          <mxGeometry x="-0.1667" relative="1" as="geometry">
            <mxPoint x="45" as="offset" />
          </mxGeometry>
        </mxCell>
        <mxCell id="QQY2Uwe5fQTWb0ZK2LQ9-29" style="edgeStyle=orthogonalEdgeStyle;rounded=0;orthogonalLoop=1;jettySize=auto;html=1;exitX=1;exitY=0.5;exitDx=0;exitDy=0;entryX=0.5;entryY=0;entryDx=0;entryDy=0;" parent="WIyWlLk6GJQsqaUBKTNV-1" source="QQY2Uwe5fQTWb0ZK2LQ9-12" target="QQY2Uwe5fQTWb0ZK2LQ9-13" edge="1">
          <mxGeometry relative="1" as="geometry" />
        </mxCell>
        <mxCell id="QQY2Uwe5fQTWb0ZK2LQ9-30" value="Yes" style="edgeLabel;html=1;align=center;verticalAlign=middle;resizable=0;points=[];" parent="QQY2Uwe5fQTWb0ZK2LQ9-29" vertex="1" connectable="0">
          <mxGeometry x="-0.69" y="-2" relative="1" as="geometry">
            <mxPoint as="offset" />
          </mxGeometry>
        </mxCell>
        <mxCell id="QQY2Uwe5fQTWb0ZK2LQ9-12" value="a &amp;gt;= b" style="rhombus;whiteSpace=wrap;html=1;shadow=0;fontFamily=Helvetica;fontSize=12;align=center;strokeWidth=1;spacing=6;spacingTop=-4;" parent="WIyWlLk6GJQsqaUBKTNV-1" vertex="1">
          <mxGeometry x="290" y="300" width="100" height="80" as="geometry" />
        </mxCell>
        <mxCell id="QQY2Uwe5fQTWb0ZK2LQ9-23" style="edgeStyle=orthogonalEdgeStyle;rounded=0;orthogonalLoop=1;jettySize=auto;html=1;exitX=0;exitY=0.5;exitDx=0;exitDy=0;entryX=0.75;entryY=0;entryDx=0;entryDy=0;" parent="WIyWlLk6GJQsqaUBKTNV-1" source="QQY2Uwe5fQTWb0ZK2LQ9-13" target="QQY2Uwe5fQTWb0ZK2LQ9-20" edge="1">
          <mxGeometry relative="1" as="geometry" />
        </mxCell>
        <mxCell id="QQY2Uwe5fQTWb0ZK2LQ9-24" value="No" style="edgeLabel;html=1;align=center;verticalAlign=middle;resizable=0;points=[];" parent="QQY2Uwe5fQTWb0ZK2LQ9-23" vertex="1" connectable="0">
          <mxGeometry x="0.2" y="2" relative="1" as="geometry">
            <mxPoint x="21" y="-29" as="offset" />
          </mxGeometry>
        </mxCell>
        <mxCell id="QQY2Uwe5fQTWb0ZK2LQ9-31" style="edgeStyle=orthogonalEdgeStyle;rounded=0;orthogonalLoop=1;jettySize=auto;html=1;exitX=1;exitY=0.5;exitDx=0;exitDy=0;entryX=0.5;entryY=0;entryDx=0;entryDy=0;" parent="WIyWlLk6GJQsqaUBKTNV-1" source="QQY2Uwe5fQTWb0ZK2LQ9-13" target="QQY2Uwe5fQTWb0ZK2LQ9-21" edge="1">
          <mxGeometry relative="1" as="geometry" />
        </mxCell>
        <mxCell id="QQY2Uwe5fQTWb0ZK2LQ9-32" value="Yes" style="edgeLabel;html=1;align=center;verticalAlign=middle;resizable=0;points=[];" parent="QQY2Uwe5fQTWb0ZK2LQ9-31" vertex="1" connectable="0">
          <mxGeometry x="-0.4286" y="2" relative="1" as="geometry">
            <mxPoint x="-10" y="2" as="offset" />
          </mxGeometry>
        </mxCell>
        <mxCell id="QQY2Uwe5fQTWb0ZK2LQ9-13" value="a &amp;gt;= c" style="rhombus;whiteSpace=wrap;html=1;shadow=0;fontFamily=Helvetica;fontSize=12;align=center;strokeWidth=1;spacing=6;spacingTop=-4;" parent="WIyWlLk6GJQsqaUBKTNV-1" vertex="1">
          <mxGeometry x="410" y="420" width="100" height="80" as="geometry" />
        </mxCell>
        <mxCell id="QQY2Uwe5fQTWb0ZK2LQ9-36" style="edgeStyle=orthogonalEdgeStyle;rounded=0;orthogonalLoop=1;jettySize=auto;html=1;exitX=0.5;exitY=1;exitDx=0;exitDy=0;entryX=0;entryY=0.5;entryDx=0;entryDy=0;" parent="WIyWlLk6GJQsqaUBKTNV-1" source="QQY2Uwe5fQTWb0ZK2LQ9-16" target="QQY2Uwe5fQTWb0ZK2LQ9-35" edge="1">
          <mxGeometry relative="1" as="geometry" />
        </mxCell>
        <mxCell id="QQY2Uwe5fQTWb0ZK2LQ9-16" value="max = b" style="rounded=1;whiteSpace=wrap;html=1;fontSize=12;glass=0;strokeWidth=1;shadow=0;" parent="WIyWlLk6GJQsqaUBKTNV-1" vertex="1">
          <mxGeometry x="80" y="540" width="90" height="40" as="geometry" />
        </mxCell>
        <mxCell id="QQY2Uwe5fQTWb0ZK2LQ9-25" style="edgeStyle=orthogonalEdgeStyle;rounded=0;orthogonalLoop=1;jettySize=auto;html=1;exitX=1;exitY=0.5;exitDx=0;exitDy=0;entryX=0.25;entryY=0;entryDx=0;entryDy=0;" parent="WIyWlLk6GJQsqaUBKTNV-1" source="QQY2Uwe5fQTWb0ZK2LQ9-17" target="QQY2Uwe5fQTWb0ZK2LQ9-20" edge="1">
          <mxGeometry relative="1" as="geometry" />
        </mxCell>
        <mxCell id="QQY2Uwe5fQTWb0ZK2LQ9-26" value="Yes" style="edgeLabel;html=1;align=center;verticalAlign=middle;resizable=0;points=[];" parent="QQY2Uwe5fQTWb0ZK2LQ9-25" vertex="1" connectable="0">
          <mxGeometry x="-0.2635" relative="1" as="geometry">
            <mxPoint x="-27" as="offset" />
          </mxGeometry>
        </mxCell>
        <mxCell id="QQY2Uwe5fQTWb0ZK2LQ9-33" style="edgeStyle=orthogonalEdgeStyle;rounded=0;orthogonalLoop=1;jettySize=auto;html=1;exitX=0;exitY=0.5;exitDx=0;exitDy=0;entryX=0.5;entryY=0;entryDx=0;entryDy=0;" parent="WIyWlLk6GJQsqaUBKTNV-1" source="QQY2Uwe5fQTWb0ZK2LQ9-17" target="QQY2Uwe5fQTWb0ZK2LQ9-16" edge="1">
          <mxGeometry relative="1" as="geometry" />
        </mxCell>
        <mxCell id="QQY2Uwe5fQTWb0ZK2LQ9-34" value="No" style="edgeLabel;html=1;align=center;verticalAlign=middle;resizable=0;points=[];" parent="QQY2Uwe5fQTWb0ZK2LQ9-33" vertex="1" connectable="0">
          <mxGeometry x="-0.408" relative="1" as="geometry">
            <mxPoint x="17" as="offset" />
          </mxGeometry>
        </mxCell>
        <mxCell id="QQY2Uwe5fQTWb0ZK2LQ9-17" value="b &amp;lt;= c" style="rhombus;whiteSpace=wrap;html=1;shadow=0;fontFamily=Helvetica;fontSize=12;align=center;strokeWidth=1;spacing=6;spacingTop=-4;" parent="WIyWlLk6GJQsqaUBKTNV-1" vertex="1">
          <mxGeometry x="170" y="420" width="100" height="80" as="geometry" />
        </mxCell>
        <mxCell id="QQY2Uwe5fQTWb0ZK2LQ9-37" style="edgeStyle=orthogonalEdgeStyle;rounded=0;orthogonalLoop=1;jettySize=auto;html=1;exitX=0.5;exitY=1;exitDx=0;exitDy=0;entryX=0.5;entryY=0;entryDx=0;entryDy=0;" parent="WIyWlLk6GJQsqaUBKTNV-1" source="QQY2Uwe5fQTWb0ZK2LQ9-20" target="QQY2Uwe5fQTWb0ZK2LQ9-35" edge="1">
          <mxGeometry relative="1" as="geometry" />
        </mxCell>
        <mxCell id="QQY2Uwe5fQTWb0ZK2LQ9-20" value="max = c" style="rounded=1;whiteSpace=wrap;html=1;fontSize=12;glass=0;strokeWidth=1;shadow=0;" parent="WIyWlLk6GJQsqaUBKTNV-1" vertex="1">
          <mxGeometry x="295" y="540" width="90" height="40" as="geometry" />
        </mxCell>
        <mxCell id="QQY2Uwe5fQTWb0ZK2LQ9-38" style="edgeStyle=orthogonalEdgeStyle;rounded=0;orthogonalLoop=1;jettySize=auto;html=1;exitX=0.5;exitY=1;exitDx=0;exitDy=0;entryX=1;entryY=0.5;entryDx=0;entryDy=0;" parent="WIyWlLk6GJQsqaUBKTNV-1" source="QQY2Uwe5fQTWb0ZK2LQ9-21" target="QQY2Uwe5fQTWb0ZK2LQ9-35" edge="1">
          <mxGeometry relative="1" as="geometry" />
        </mxCell>
        <mxCell id="QQY2Uwe5fQTWb0ZK2LQ9-21" value="max = a" style="rounded=1;whiteSpace=wrap;html=1;fontSize=12;glass=0;strokeWidth=1;shadow=0;" parent="WIyWlLk6GJQsqaUBKTNV-1" vertex="1">
          <mxGeometry x="520" y="540" width="80" height="40" as="geometry" />
        </mxCell>
        <mxCell id="QQY2Uwe5fQTWb0ZK2LQ9-42" style="edgeStyle=orthogonalEdgeStyle;rounded=0;orthogonalLoop=1;jettySize=auto;html=1;exitX=0.5;exitY=1;exitDx=0;exitDy=0;entryX=0.5;entryY=0;entryDx=0;entryDy=0;" parent="WIyWlLk6GJQsqaUBKTNV-1" source="QQY2Uwe5fQTWb0ZK2LQ9-35" target="QQY2Uwe5fQTWb0ZK2LQ9-39" edge="1">
          <mxGeometry relative="1" as="geometry" />
        </mxCell>
        <mxCell id="QQY2Uwe5fQTWb0ZK2LQ9-35" value="Consol print:&amp;nbsp; max" style="rounded=1;whiteSpace=wrap;html=1;fontSize=12;glass=0;strokeWidth=1;shadow=0;" parent="WIyWlLk6GJQsqaUBKTNV-1" vertex="1">
          <mxGeometry x="280" y="620" width="120" height="40" as="geometry" />
        </mxCell>
        <mxCell id="QQY2Uwe5fQTWb0ZK2LQ9-39" value="End" style="ellipse;whiteSpace=wrap;html=1;aspect=fixed;" parent="WIyWlLk6GJQsqaUBKTNV-1" vertex="1">
          <mxGeometry x="300" y="690" width="80" height="80" as="geometry" />
        </mxCell>
        <mxCell id="QQY2Uwe5fQTWb0ZK2LQ9-43" value="Yes" style="rounded=0;html=1;jettySize=auto;orthogonalLoop=1;fontSize=11;endArrow=block;endFill=0;endSize=8;strokeWidth=1;shadow=0;labelBackgroundColor=none;edgeStyle=orthogonalEdgeStyle;" parent="WIyWlLk6GJQsqaUBKTNV-1" source="QQY2Uwe5fQTWb0ZK2LQ9-45" target="QQY2Uwe5fQTWb0ZK2LQ9-46" edge="1">
          <mxGeometry y="20" relative="1" as="geometry">
            <mxPoint as="offset" />
          </mxGeometry>
        </mxCell>
        <mxCell id="QQY2Uwe5fQTWb0ZK2LQ9-44" value="No" style="edgeStyle=orthogonalEdgeStyle;rounded=0;html=1;jettySize=auto;orthogonalLoop=1;fontSize=11;endArrow=block;endFill=0;endSize=8;strokeWidth=1;shadow=0;labelBackgroundColor=none;" parent="WIyWlLk6GJQsqaUBKTNV-1" source="QQY2Uwe5fQTWb0ZK2LQ9-45" edge="1">
          <mxGeometry y="10" relative="1" as="geometry">
            <mxPoint as="offset" />
            <mxPoint x="1170" y="340" as="targetPoint" />
          </mxGeometry>
        </mxCell>
        <mxCell id="QQY2Uwe5fQTWb0ZK2LQ9-45" value="a &amp;gt;= b" style="rhombus;whiteSpace=wrap;html=1;shadow=0;fontFamily=Helvetica;fontSize=12;align=center;strokeWidth=1;spacing=6;spacingTop=-4;" parent="WIyWlLk6GJQsqaUBKTNV-1" vertex="1">
          <mxGeometry x="1020" y="300" width="100" height="80" as="geometry" />
        </mxCell>
        <mxCell id="QQY2Uwe5fQTWb0ZK2LQ9-46" value="a &amp;gt;= c" style="rhombus;whiteSpace=wrap;html=1;shadow=0;fontFamily=Helvetica;fontSize=12;align=center;strokeWidth=1;spacing=6;spacingTop=-4;" parent="WIyWlLk6GJQsqaUBKTNV-1" vertex="1">
          <mxGeometry x="1020" y="420" width="100" height="80" as="geometry" />
        </mxCell>
        <mxCell id="QQY2Uwe5fQTWb0ZK2LQ9-47" value="max = a" style="rounded=1;whiteSpace=wrap;html=1;fontSize=12;glass=0;strokeWidth=1;shadow=0;" parent="WIyWlLk6GJQsqaUBKTNV-1" vertex="1">
          <mxGeometry x="1010" y="560" width="120" height="40" as="geometry" />
        </mxCell>
        <mxCell id="QQY2Uwe5fQTWb0ZK2LQ9-48" value="Yes" style="edgeStyle=orthogonalEdgeStyle;rounded=0;html=1;jettySize=auto;orthogonalLoop=1;fontSize=11;endArrow=block;endFill=0;endSize=8;strokeWidth=1;shadow=0;labelBackgroundColor=none;exitX=0.5;exitY=1;exitDx=0;exitDy=0;entryX=0.5;entryY=0;entryDx=0;entryDy=0;" parent="WIyWlLk6GJQsqaUBKTNV-1" source="QQY2Uwe5fQTWb0ZK2LQ9-46" target="QQY2Uwe5fQTWb0ZK2LQ9-47" edge="1">
          <mxGeometry y="10" relative="1" as="geometry">
            <mxPoint as="offset" />
            <mxPoint x="1130" y="470" as="sourcePoint" />
            <mxPoint x="1180" y="470" as="targetPoint" />
          </mxGeometry>
        </mxCell>
        <mxCell id="QQY2Uwe5fQTWb0ZK2LQ9-49" value="max = b" style="rounded=1;whiteSpace=wrap;html=1;fontSize=12;glass=0;strokeWidth=1;shadow=0;" parent="WIyWlLk6GJQsqaUBKTNV-1" vertex="1">
          <mxGeometry x="1160" y="560" width="120" height="40" as="geometry" />
        </mxCell>
        <mxCell id="QQY2Uwe5fQTWb0ZK2LQ9-50" value="b &amp;gt;= c" style="rhombus;whiteSpace=wrap;html=1;shadow=0;fontFamily=Helvetica;fontSize=12;align=center;strokeWidth=1;spacing=6;spacingTop=-4;" parent="WIyWlLk6GJQsqaUBKTNV-1" vertex="1">
          <mxGeometry x="1170" y="300" width="100" height="80" as="geometry" />
        </mxCell>
        <mxCell id="QQY2Uwe5fQTWb0ZK2LQ9-51" value="No" style="edgeStyle=orthogonalEdgeStyle;rounded=0;html=1;jettySize=auto;orthogonalLoop=1;fontSize=11;endArrow=block;endFill=0;endSize=8;strokeWidth=1;shadow=0;labelBackgroundColor=none;" parent="WIyWlLk6GJQsqaUBKTNV-1" edge="1">
          <mxGeometry y="10" relative="1" as="geometry">
            <mxPoint as="offset" />
            <mxPoint x="1020" y="460" as="sourcePoint" />
            <mxPoint x="930" y="560" as="targetPoint" />
            <Array as="points">
              <mxPoint x="1000" y="460" />
              <mxPoint x="1000" y="460" />
            </Array>
          </mxGeometry>
        </mxCell>
        <mxCell id="QQY2Uwe5fQTWb0ZK2LQ9-52" value="Yes" style="rounded=0;html=1;jettySize=auto;orthogonalLoop=1;fontSize=11;endArrow=block;endFill=0;endSize=8;strokeWidth=1;shadow=0;labelBackgroundColor=none;edgeStyle=orthogonalEdgeStyle;exitX=0.5;exitY=1;exitDx=0;exitDy=0;" parent="WIyWlLk6GJQsqaUBKTNV-1" source="QQY2Uwe5fQTWb0ZK2LQ9-50" edge="1">
          <mxGeometry y="20" relative="1" as="geometry">
            <mxPoint as="offset" />
            <mxPoint x="1219.5" y="390" as="sourcePoint" />
            <mxPoint x="1220" y="560" as="targetPoint" />
            <Array as="points">
              <mxPoint x="1220" y="410" />
            </Array>
          </mxGeometry>
        </mxCell>
        <mxCell id="QQY2Uwe5fQTWb0ZK2LQ9-53" value="max = c" style="rounded=1;whiteSpace=wrap;html=1;fontSize=12;glass=0;strokeWidth=1;shadow=0;" parent="WIyWlLk6GJQsqaUBKTNV-1" vertex="1">
          <mxGeometry x="870" y="560" width="120" height="40" as="geometry" />
        </mxCell>
        <mxCell id="fGq1hlFb68w8veUN5yNm-0" value="Вариант 2&lt;br&gt;(Хуже)" style="rounded=0;whiteSpace=wrap;html=1;fillColor=#f8cecc;strokeColor=#b85450;" vertex="1" parent="WIyWlLk6GJQsqaUBKTNV-1">
          <mxGeometry x="1270" y="20" width="120" height="40" as="geometry" />
        </mxCell>
        <mxCell id="fGq1hlFb68w8veUN5yNm-1" value="Вариант 1" style="rounded=0;whiteSpace=wrap;html=1;fillColor=#d5e8d4;strokeColor=#82b366;" vertex="1" parent="WIyWlLk6GJQsqaUBKTNV-1">
          <mxGeometry x="650" y="20" width="120" height="40" as="geometry" />
        </mxCell>
        <mxCell id="fGq1hlFb68w8veUN5yNm-2" value="Max of 3 numbers" style="rounded=0;whiteSpace=wrap;html=1;fillColor=#ffe6cc;strokeColor=#d79b00;" vertex="1" parent="WIyWlLk6GJQsqaUBKTNV-1">
          <mxGeometry x="225" y="20" width="230" height="40" as="geometry" />
        </mxCell>
      </root>
    </mxGraphModel>
  </diagram>
</mxfile>
